<svg width="20" height="21" viewBox="0 0 20 21" fill="none" xmlns="http://www.w3.org/2000/svg">
<path d="M13.3 15.3221L14.7 13.9221L11 10.2221V5.62207H9V11.0221L13.3 15.3221ZM10 20.6221C8.61667 20.6221 7.31667 20.3596 6.1 19.8346C4.88333 19.3096 3.825 18.5971 2.925 17.6971C2.025 16.7971 1.3125 15.7387 0.7875 14.5221C0.2625 13.3054 0 12.0054 0 10.6221C0 9.23874 0.2625 7.93874 0.7875 6.72207C1.3125 5.5054 2.025 4.44707 2.925 3.54707C3.825 2.64707 4.88333 1.93457 6.1 1.40957C7.31667 0.88457 8.61667 0.62207 10 0.62207C11.3833 0.62207 12.6833 0.88457 13.9 1.40957C15.1167 1.93457 16.175 2.64707 17.075 3.54707C17.975 4.44707 18.6875 5.5054 19.2125 6.72207C19.7375 7.93874 20 9.23874 20 10.6221C20 12.0054 19.7375 13.3054 19.2125 14.5221C18.6875 15.7387 17.975 16.7971 17.075 17.6971C16.175 18.5971 15.1167 19.3096 13.9 19.8346C12.6833 20.3596 11.3833 20.6221 10 20.6221ZM10 18.6221C12.2167 18.6221 14.1042 17.8429 15.6625 16.2846C17.2208 14.7262 18 12.8387 18 10.6221C18 8.4054 17.2208 6.5179 15.6625 4.95957C14.1042 3.40124 12.2167 2.62207 10 2.62207C7.78333 2.62207 5.89583 3.40124 4.3375 4.95957C2.77917 6.5179 2 8.4054 2 10.6221C2 12.8387 2.77917 14.7262 4.3375 16.2846C5.89583 17.8429 7.78333 18.6221 10 18.6221Z" fill="#85002B"/>
</svg>
